
oooooo     oooo  o8o   .oooooo..o ooooo     ooo       .o.       ooooo         o8o   .oooooo..o oooooooooooo
`888.     .8'   `"'  d8P'    `Y8 `888'     `8'      .888.      `888'         `"'  d8P'    `Y8 `888'     `8
`888.   .8'   oooo  Y88bo.       888       8      .8"888.      888         oooo  Y88bo.       888        
 `888. .8'    `888   `"Y8888o.   888       8     .8' `888.     888         `888   `"Y8888o.   888oooo8    
  `888.8'      888       `"Y88b  888       8    .88ooo8888.    888          888       `"Y88b  888    "    
   `888'       888  oo     .d8P  `88.    .8'   .8'     `888.   888       o  888  oo     .d8P  888       o
    `8'       o888o 8""88888P'     `YbodP'    o88o     o8888o o888ooooood8 o888o 8""88888P'  o888ooooood8




Title: Beethoven's Christmas Adventure 2011 DvDRiP XviD - VISUALiSE
Format: Xvid
Language: English
Subtitles: No
Imdb: http://www.imdb.com/title/tt1855134/

Plot:
A Christmas elf accidentally takes off in Santa's sleigh, 
crash lands in a small town, and loses the magic toy bag. 
Beethoven must rescue the elf, recover the bag from greedy 
crooks, and return the sleigh to Santa in time to save 
Christmas

Sources:
Video:   Retail DVDR - Many Thanks German Pal  
Audio:   Retail DVDR - Many Thanks German Pal   

Release Notes:
Beethoven's Christmas Adventure 2011 DvDRiP XviD - VISUALiSE
Straight forward rip from the dvdr ran 
a few filters etc etc  

enjoy. 

Info:
Video
ID                               : 0
Format                           : MPEG-4 Visual
Codec ID                         : XVID
Codec ID/Hint                    : XviD
Duration                         : 1h 25mn
Bit rate                         : 90.0 Kbps
Width                            : 720 pixels
Height                           : 402 pixels
Display aspect ratio             : 16:9
Frame rate                       : 29.970 fps
Color space                      : YUV
Chroma subsampling               : 4:2:0
Compression mode                 : Lossy
Bits/(Pixel*Frame)               : 0.010
Stream size                      : 55.3 MiB (5%)

Audio
ID                               : 1
Format                           : MPEG Audio
Codec ID                         : 55
Codec ID/Hint                    : MP3
Duration                         : 1h 25mn
Bit rate                         : 128 Kbps
Channel(s)                       : 2 channels
Sampling rate                    : 48.0 KHz
Compression mode                 : Lossy
Stream size                      : 78.6 MiB (7%)
Alignment                        : Aligned on interleaves

Screens:
 
http://i.imgur.com/RqlIb.png 
http://i.imgur.com/BNP92.png 
http://i.imgur.com/ZNYnE.png 
http://i.imgur.com/N7qGl.png 
http://i.imgur.com/ZOo3X.png

Greetz
The Villian and
The Select Few .... YOU Know Who YOU Are 